#format: frame checksums
#version: 2
#hash: MD5
#tb 0: 1/8000
#media_type 0: audio
#codec_id 0: pcm_s16le
#sample_rate 0: 8000
#channel_layout_name 0: mono
#stream#, dts,        pts, duration,     size, hash
0,          0,          0,      640,     1280, 941c49e6a56933f663a83b5b2bde64d3
0,        640,        640,      640,     1280, d1268ca433a0d01e2a6c1f1de5e6317d
0,       1280,       1280,      640,     1280, c9608efb1df4cfedaa7a78c815514376
0,       1920,       1920,      640,     1280, 45dbde137f46b0a3a347d48586f5c9e0
0,       2560,       2560,      640,     1280, add64ee46ac49109ad90f80af9c1b823
0,       3200,       3200,      640,     1280, 4d424b644b380aebc4fcabe6294d36c4
0,       3840,       3840,      640,     1280, cf80a6fea238b405e93b66109ee2cf45
0,       4480,       4480,      640,     1280, 0bdcee2800e3636132f20bb9ff41e9a0
0,       5120,       5120,      640,     1280, 5d91e6ea16fde757fd8d3482a7659cda
0,       5760,       5760,      640,     1280, 02d2033f1a56ae27f0b394643741ed4c
0,       6400,       6400,      640,     1280, 293d9a686e809c814a95ba2e123be024
0,       7040,       7040,      640,     1280, 90245e7394f999cc2fef5eccee6f8b65
0,       7680,       7680,      640,     1280, f42fd806b3f29c44c47117c43c39d046
0,       8320,       8320,      640,     1280, 8d5f671fdb9e1978f1a1e0edaa2b2558
0,       8960,       8960,      640,     1280, 1b4d436cff37b0eb3b6ed39ac2f734c5
0,       9600,       9600,      640,     1280, 3605b9b00dc7886d2d21ba45d3ddf93f
0,      10240,      10240,      640,     1280, fbe4cc371c09ffdc4c708a6fc5d98e72
0,      10880,      10880,      640,     1280, d29cf29e3d88b370ed230863aa20395d
0,      11520,      11520,      640,     1280, 45d5ba56a767ceac95d70a2bf1809d9a
0,      12160,      12160,      640,     1280, f2c657802964d2a47c2bd5f016358b3f
0,      12800,      12800,      640,     1280, 5fcd623714d0ce5a2af787fa2248b688
0,      13440,      13440,      640,     1280, 8301f4336a5b3906dccc5ad64da1a27f
0,      14080,      14080,      640,     1280, 9b2bb84866d022b7e324f5246b02f87c
0,      14720,      14720,      640,     1280, d5ea40516bc18acc1758a996839d9264
0,      15360,      15360,      640,     1280, 35e67297233ad55bad1cbf0ae00ecea4
0,      16000,      16000,      640,     1280, d139db647c14b1f8aaa14af734a4246b
0,      16640,      16640,      640,     1280, 7432f1186f23685aa50287c39da9c6cb
0,      17280,      17280,      640,     1280, 26df0d4d915feec640510d6be4633267
0,      17920,      17920,      640,     1280, f1cc82f71f6d5a44168ab438e8ff1b5e
0,      18560,      18560,      640,     1280, 64373fdf85396c7cd0925ae5f0cf2ea1
0,      19200,      19200,      640,     1280, eeb9e6c7c48aa008cd312156371d5866
0,      19840,      19840,      640,     1280, da33a214c23b8f618fb7305f435a21af
0,      20480,      20480,      640,     1280, 05131d541dec3a691a803dcc3cf71fdf
0,      21120,      21120,      640,     1280, a197fec6f3b77746818ca3765c39ccd7
0,      21760,      21760,      640,     1280, 48907fa4891809908f9d3fffd5f9f772
0,      22400,      22400,      640,     1280, dcde835643294d688a9e419d928f5f9a
0,      23040,      23040,      640,     1280, b155f7e7b6be9dbf2ec9e57d4670104a
0,      23680,      23680,      640,     1280, f44a985a6a77d3ce50b1aa3681f1ab58
0,      24320,      24320,      640,     1280, 283578e55246ca9bb246cef45b16e011
0,      24960,      24960,      640,     1280, 2e3c1e249a75f83a61a0a641cae00c52
0,      25600,      25600,      640,     1280, 5e7f18c94614d3bc5f0d8db117ecfe79
0,      26240,      26240,      640,     1280, 600da4aedd04939c02eff33cffefd28e
0,      26880,      26880,      640,     1280, e75e908f21713a0645fde30d458a57e7
0,      27520,      27520,      640,     1280, 1d7da87f74ea3765e8824730f32e663a
0,      28160,      28160,      640,     1280, c5b085d6d20c2a95dbd7bd5a4482d247
0,      28800,      28800,      640,     1280, c5f889c232bc402f7caa8678b914cd76
0,      29440,      29440,      640,     1280, 570ecd19b56729becb21a6064bb28dcf
0,      30080,      30080,      640,     1280, a0658fbfc910f9870066f23ecc80acde
0,      30720,      30720,      640,     1280, f73a9dd50ca3d5fbfca3929eaf1857c3
0,      31360,      31360,      640,     1280, fe65a3edd5fff4b250998ba49bac83a2
0,      32000,      32000,      640,     1280, 5937007a0b2f5fc77bbcfad87696b561
0,      32640,      32640,      640,     1280, 20185e49dcafcd0bdaec48c4b959efb4
0,      33280,      33280,      640,     1280, efd9a78f37dc6d5ef0b6c707f2a42ef6
0,      33920,      33920,      640,     1280, 29bf0f623d7b2bc059e82c044321a0b2
0,      34560,      34560,      640,     1280, 5247ea3adb87b63123edc4d8aa1cd7d9
0,      35200,      35200,      640,     1280, 26e874e6e7fa996a10e745d1458041aa
0,      35840,      35840,      640,     1280, ae05627e46a57fb012e3ad7385e7209f
0,      36480,      36480,      640,     1280, 8071ebfb305857752be7c6c2ec6fcfe6
0,      37120,      37120,      640,     1280, aea2f9485c033775069e26742e6c5b10
0,      37760,      37760,      640,     1280, da39227c2783ff9c93bda0f76721351d
0,      38400,      38400,      640,     1280, 0fdc873f2ae38eead6b7288bbd6284c6
0,      39040,      39040,      640,     1280, cb914ed339a329e745fa1be133c8cb49
0,      39680,      39680,      640,     1280, 310c838ba6bd4d1516c5d58ff56101c1
0,      40320,      40320,      640,     1280, e6778cef302e53f2876c159d46c20ba7
0,      40960,      40960,      640,     1280, 188783c00724734f36290b829ad43090
0,      41600,      41600,      640,     1280, cad5cb529a714be1001812e4f7f85c09
0,      42240,      42240,      640,     1280, 49160e719471d3cee87693c007716385
0,      42880,      42880,      640,     1280, f727d1f4aeadf282ba4289b96f619959
0,      43520,      43520,      640,     1280, 86f2dce79aa48682c6244a32eb7626d9
0,      44160,      44160,      640,     1280, cf5b904813aa083dbd55fb71c36f8fa4
0,      44800,      44800,      640,     1280, 720be14ab39550a8865ec14a441a794c
0,      45440,      45440,      640,     1280, 3b70bcf20fb3a643053be658a3eda306
0,      46080,      46080,      640,     1280, f8de057282a2172f5a641a6ecb55a446
0,      46720,      46720,      640,     1280, e906b77a617f7403d5065957ec21cf0f
0,      47360,      47360,      640,     1280, 53a7c92afa0942581c1639c5cd289173
